<?xml version="1.0" encoding="utf-8"?>
<!-- Generator: Adobe Illustrator 16.0.4, SVG Export Plug-In . SVG Version: 6.00 Build 0)  -->
<!DOCTYPE svg PUBLIC "-//W3C//DTD SVG 1.1//EN" "http://www.w3.org/Graphics/SVG/1.1/DTD/svg11.dtd">
<svg version="1.1" id="Layer_1" xmlns="http://www.w3.org/2000/svg" xmlns:xlink="http://www.w3.org/1999/xlink" x="0px" y="0px"
	 width="426.5px" height="38.775px" viewBox="0 0 426.5 38.775" enable-background="new 0 0 426.5 38.775" xml:space="preserve">
<g>
	<g>
		<path d="M18.612,7.45H18.43l-5.778,15.327c-0.122,0.335-0.274,0.761-0.76,0.761c-0.334,0-0.517-0.243-0.639-0.608L4.411,3.649
			C4.106,2.798,3.559,2.555,3.164,2.555h-0.76c-0.152,0-0.183-0.122-0.183-0.243V1.521c0-0.152,0.031-0.213,0.244-0.213
			c0.243,0,1.186,0.091,4.318,0.091c2.189,0,3.436-0.091,3.74-0.091c0.213,0,0.243,0.091,0.243,0.243v0.761
			c0,0.151-0.03,0.243-0.243,0.243H9.854c-0.486,0-0.791,0.426-0.608,1.034l4.167,13.259h0.183c0.365-1.034,4.014-10.705,4.014-11.8
			c0-0.76-0.304-1.551-0.578-1.916c-0.273-0.364-0.669-0.577-0.912-0.577H15.51c-0.152,0-0.182-0.062-0.182-0.243V1.521
			c0-0.122,0.03-0.213,0.213-0.213c0.273,0,1.338,0.091,4.014,0.091c2.554,0,3.71-0.091,4.014-0.091
			c0.183,0,0.213,0.091,0.213,0.273v0.761c0,0.121-0.03,0.213-0.213,0.213h-0.913c-0.486,0-0.76,0.669-0.608,1.186l4.197,13.107
			h0.182c1.49-4.136,4.136-11.86,4.136-13.503c0-0.334-0.396-0.79-0.973-0.79h-0.882c-0.182,0-0.213-0.092-0.213-0.273V1.521
			c0-0.122,0.031-0.213,0.244-0.213c0.304,0,1.368,0.091,3.254,0.091c1.703,0,2.585-0.091,2.828-0.091
			c0.183,0,0.213,0.061,0.213,0.273v0.761c0,0.121,0,0.213-0.213,0.213h-0.578c-0.517,0-1.125,0.334-1.43,1.095
			c-0.365,0.973-6.478,17.486-7.085,18.945c-0.152,0.365-0.365,0.943-0.913,0.943c-0.426,0-0.608-0.396-0.76-0.821L18.612,7.45z"/>
		<path d="M47.007,11.282c1.399,0,2.737-0.091,3.102-0.183c0.517-0.121,0.942-0.396,1.399-0.942
			c0.334-0.456,0.699-1.308,0.699-1.886c0-0.213,0.091-0.273,0.243-0.273l0.821,0.091c0.152,0.031,0.274,0.062,0.243,0.244
			c-0.091,0.517-0.091,2.098-0.091,3.162c0,1.368,0.122,2.828,0.183,3.467c0.03,0.183-0.091,0.213-0.243,0.243l-0.73,0.152
			c-0.122,0.03-0.183-0.03-0.243-0.243c-0.122-0.486-0.426-1.187-0.608-1.551c-0.334-0.578-1.064-0.974-1.672-1.064
			c-0.821-0.122-1.764-0.183-3.102-0.183v1.824c0,1.643,0.152,4.593,0.152,5.14c0,1.581,0.335,2.129,0.73,2.312
			c0.456,0.183,1.034,0.273,2.555,0.273c0.517,0,1.794-0.03,2.433-0.091c0.608-0.062,1.521-0.365,2.312-1.004
			c0.791-0.639,2.494-2.524,3.102-3.254c0.122-0.122,0.213-0.152,0.304-0.091l0.517,0.304c0.122,0.061,0.152,0.152,0.122,0.243
			l-1.369,4.592c-0.091,0.274-0.304,0.456-0.669,0.456c-0.152,0-0.821-0.03-2.767-0.061c-1.977,0-5.2-0.03-10.461-0.03
			c-1.125,0-1.977,0.03-2.585,0.03c-0.639,0.03-1.034,0.061-1.308,0.061c-0.213,0-0.274-0.091-0.274-0.334v-0.639
			c0-0.183,0.091-0.273,0.304-0.273h0.913c1.399,0,1.521-0.213,1.521-1.277V10.31c0-2.524-0.061-6.265-0.091-6.569
			c-0.122-0.973-0.426-1.186-1.247-1.186h-1.186c-0.122,0-0.152-0.092-0.152-0.305V1.521c0-0.091,0.03-0.213,0.213-0.213
			c0.669,0,1.733,0.091,4.501,0.091l10.674-0.03c0.487,0,1.064-0.061,1.217-0.061c0.152,0,0.212,0.061,0.243,0.152
			c0.122,0.426,1.125,4.592,1.247,4.896c0.061,0.152,0.061,0.213-0.091,0.305l-0.486,0.243c-0.122,0.061-0.274,0.03-0.365-0.122
			c-0.152-0.243-2.889-2.979-3.589-3.405c-0.639-0.396-1.49-0.791-2.311-0.821l-4.014-0.122L47.007,11.282z"/>
		<path d="M65.217,10.188c0-0.729-0.091-6.204-0.122-6.599c-0.061-0.73-0.365-1.034-1.003-1.034h-1.46
			c-0.152,0-0.243-0.062-0.243-0.183V1.49c0-0.122,0.091-0.183,0.213-0.183c0.365,0,1.916,0.091,4.896,0.091
			c3.102,0,4.075-0.091,4.5-0.091c0.152,0,0.213,0.091,0.213,0.273v0.761c0,0.151-0.091,0.213-0.243,0.213h-0.882
			c-0.76,0-1.217,0.243-1.217,0.79c0,0.305-0.091,7.025-0.091,7.391v2.341c0,0.305,0.091,7.329,0.091,7.604
			c0,0.942,0.457,1.095,1.034,1.095h1.247c0.152,0,0.243,0.061,0.243,0.213v0.852c0,0.121-0.091,0.182-0.274,0.182
			c-0.365,0-1.581-0.091-4.47-0.091c-3.193,0-4.501,0.091-4.835,0.091c-0.152,0-0.243-0.061-0.243-0.243v-0.821
			c0-0.121,0.091-0.182,0.243-0.182h0.882c0.608,0,1.247-0.092,1.369-0.821c0.061-0.456,0.152-7.025,0.152-8.637V10.188z"/>
		<path d="M96.841,19.979c0,0.426,0.122,0.73,0.122,0.974s-0.183,0.365-0.487,0.486c-2.463,1.247-5.048,1.946-8.91,1.946
			c-3.163,0-6.721-1.004-8.819-3.467c-1.855-2.099-2.798-4.684-2.798-8.363c0-2.767,1.308-5.717,3.528-7.633
			c2.22-1.946,4.957-2.98,8.606-2.98c3.071,0,5.352,0.852,6.355,1.49c0.365,0.213,0.578,0.152,0.76-0.091l0.304-0.486
			c0.152-0.213,0.213-0.305,0.396-0.305c0.334,0,0.426,0.213,0.426,0.548l0.456,6.265c0.03,0.364,0,0.517-0.122,0.547l-0.852,0.183
			c-0.183,0.03-0.274-0.03-0.365-0.304c-0.487-1.49-1.46-3.437-2.768-4.623c-1.186-1.125-2.737-1.885-4.805-1.885
			c-1.643,0-3.163,0.517-4.592,2.28c-1.399,1.673-2.433,4.196-2.433,6.934c0,3.589,1.003,6.721,2.646,8.363
			c1.429,1.429,2.585,2.067,4.653,2.067c1.582,0,2.433-0.121,3.437-0.607c0.639-0.305,0.699-1.277,0.699-2.859V16.27
			c0-1.095-0.304-1.398-1.064-1.398h-1.277c-0.183,0-0.213-0.122-0.213-0.274v-0.76c0-0.122,0.03-0.213,0.213-0.213
			c0.273,0,1.764,0.091,4.5,0.091c2.798,0,3.923-0.091,4.167-0.091s0.273,0.091,0.273,0.243v0.761c0,0.182-0.03,0.243-0.213,0.243
			h-0.882c-0.547,0-0.942,0.213-0.942,1.095V19.979z"/>
		<path d="M108.42,10.948c0-1.886-0.061-5.991-0.061-6.417c0-1.551-0.213-1.977-1.034-1.977h-1.247
			c-0.334,0-0.365-0.122-0.365-0.305V1.673c0-0.183,0.031-0.365,0.335-0.365c0.517,0,1.49,0.091,4.531,0.091
			c2.98,0,4.075-0.091,4.592-0.091c0.334,0,0.365,0.091,0.365,0.335v0.639c0,0.182-0.03,0.273-0.365,0.273h-0.73
			c-1.095,0-1.247,0.517-1.338,1.673c-0.031,0.425-0.183,4.439-0.183,6.143v0.456c0,0.152,0.091,0.243,0.487,0.243h9.093
			c0.456,0,0.607-0.061,0.607-0.396V10.37c0-1.733-0.212-5.961-0.212-6.265c-0.03-0.974-0.152-1.551-0.699-1.551h-1.247
			c-0.273,0-0.304-0.092-0.304-0.305V1.581c0-0.183,0.03-0.273,0.273-0.273c0.547,0,1.855,0.091,4.44,0.091
			c2.524,0,3.802-0.091,4.196-0.091c0.365,0,0.396,0.091,0.396,0.335V2.22c0,0.213-0.031,0.335-0.396,0.335h-0.912
			c-0.882,0-0.973,0.517-0.973,1.551c0,0.426-0.061,5.565-0.061,6.69v1.034c0,0.973,0.061,6.751,0.091,8.424
			c0,1.095,0.304,1.521,1.216,1.521h1.035c0.242,0,0.273,0.091,0.273,0.273v0.669c0,0.152-0.031,0.304-0.335,0.304
			c-0.486,0-1.521-0.091-4.257-0.091c-3.103,0-4.076,0.091-4.775,0.091c-0.334,0-0.395-0.151-0.395-0.304v-0.669
			c0-0.183,0.03-0.273,0.334-0.273h1.338c0.73,0,0.821-0.578,0.852-1.339c0.061-1.429,0.121-6.325,0.121-7.298v-0.365
			c0-0.335-0.304-0.365-0.668-0.365h-9.093c-0.334,0-0.426,0.092-0.426,0.365v0.456c0,0.761,0.122,5.443,0.213,7.512
			c0.03,0.729,0.334,1.034,1.003,1.034h0.852c0.243,0,0.274,0.061,0.274,0.243v0.729c0,0.183-0.031,0.273-0.274,0.273
			c-0.547,0-1.612-0.091-4.166-0.091c-3.224,0-4.136,0.091-4.744,0.091c-0.274,0-0.304-0.091-0.304-0.334v-0.639
			c0-0.213,0.03-0.273,0.304-0.273h1.399c0.76,0,0.852-0.73,0.852-1.399c0.03-1.429,0.091-7.329,0.091-8.119V10.948z"/>
		<path d="M146.365,2.798H145.3c-0.974,0-2.798,0.03-4.075,0.486c-0.669,0.486-2.007,2.342-2.768,3.437
			c-0.091,0.152-0.182,0.243-0.304,0.213l-0.669-0.243c-0.121-0.03-0.152-0.183-0.121-0.273c0.334-1.277,1.338-5.292,1.459-5.9
			C138.915,0.122,139.066,0,139.279,0s0.304,0.122,0.578,0.456c0.335,0.426,0.912,0.699,2.007,0.761
			c1.611,0.091,2.889,0.182,6.052,0.182h1.765c3.314,0,4.621-0.121,5.898-0.182c0.67-0.031,1.855-0.396,2.221-0.761
			C158.104,0.152,158.286,0,158.499,0s0.305,0.122,0.365,0.486l0.912,6.052c0.03,0.122-0.03,0.243-0.121,0.273l-0.639,0.244
			c-0.122,0.03-0.184-0.062-0.305-0.274c-0.669-1.095-1.855-2.676-2.615-3.405c-0.76-0.457-3.467-0.578-4.166-0.578h-1.004v8.363
			c0,0.426,0,8.94,0.03,9.396c0.062,0.761,0.304,1.217,1.034,1.217h1.369c0.273,0,0.304,0.091,0.304,0.304v0.699
			c0,0.152-0.03,0.243-0.304,0.243c-0.305,0-1.277-0.091-4.653-0.091c-3.224,0-4.501,0.091-4.927,0.091
			c-0.243,0-0.273-0.121-0.273-0.364v-0.578c0-0.213,0.03-0.304,0.213-0.304h1.551c0.608,0,0.973-0.365,1.033-0.913
			c0.062-0.639,0.062-9.975,0.062-10.552V2.798z"/>
		<path d="M170.534,16.209c0.122,0,0.213,0.03,0.213,0.243c0.061,0.942,0.486,2.25,1.217,3.437c0.882,1.398,2.372,2.067,3.832,2.067
			c1.459,0,3.801-0.973,3.801-3.375c0-2.524-0.486-3.254-4.439-4.744c-0.912-0.335-2.859-1.308-4.41-2.646
			c-1.064-0.943-1.521-2.555-1.521-4.318c0-1.855,0.456-3.103,2.281-4.471c1.368-1.034,2.524-1.46,4.379-1.46
			c2.22,0,3.406,0.365,4.044,0.608c0.305,0.122,0.518,0.061,0.7-0.152l0.396-0.395c0.121-0.122,0.273-0.183,0.456-0.183
			c0.213,0,0.273,0.334,0.304,0.517l0.486,5.2c0,0.122-0.061,0.152-0.151,0.183l-0.669,0.213c-0.152,0.061-0.305,0-0.396-0.213
			c-0.335-0.882-0.852-2.068-1.886-3.163c-0.76-0.852-1.672-1.276-3.041-1.276c-2.281,0-3.224,1.977-3.224,2.767
			c0,1.126,0.03,2.038,0.791,2.798c0.79,0.821,2.524,1.551,4.015,1.977c1.459,0.426,2.645,1.187,3.893,2.312
			c1.186,1.064,1.672,2.402,1.672,4.531c0,3.71-2.646,6.721-6.66,6.721c-2.736,0-4.166-0.456-5.443-1.308
			c-0.365-0.243-0.547-0.334-0.699-0.334c-0.183,0-0.305,0.212-0.486,0.517c-0.183,0.334-0.335,0.365-0.548,0.365
			c-0.335,0-0.456-0.152-0.426-0.487l0.487-5.777c0.029-0.213,0.121-0.213,0.242-0.213L170.534,16.209z"/>
	</g>
	<g>
		<path d="M233.539,22.946c0.092,1.125,0.578,2.828,1.582,2.828h1.186c0.184,0,0.213,0.091,0.213,0.213v0.82
			c0,0.122-0.029,0.213-0.273,0.213c-0.334,0-1.156-0.091-3.375-0.091c-2.586,0-3.65,0.091-3.924,0.091
			c-0.242,0-0.273-0.03-0.273-0.273v-0.791c0-0.091,0.031-0.182,0.184-0.182h1.246c0.973,0,1.338-1.399,1.459-2.372
			c0.273-2.159,0.549-9.336,0.549-9.884l-0.031-4.653c0-1.398-0.305-2.311-1.672-2.311h-1.004c-0.184,0-0.213-0.092-0.213-0.213
			V5.49c0-0.092,0.029-0.183,0.213-0.183c0.303,0,1.125,0.091,4.713,0.091c1.43,0,2.373-0.091,2.738-0.091
			c0.303,0,0.547,0.03,0.729,0.517c1.947,5.17,4.137,10.219,5.84,14.78c0.334-0.578,2.645-6.234,2.828-6.66
			c0.121-0.304,3.162-7.572,3.314-8.181c0.092-0.334,0.486-0.365,1.398-0.365c4.744,0,5.779-0.091,6.113-0.091
			c0.152,0,0.182,0.091,0.182,0.273v0.7c0,0.182-0.029,0.273-0.242,0.273h-1.338c-0.699,0-0.791,0.547-0.791,1.186
			c0,0.456,0.029,7.938,0.061,8.576c0,0.608,0.092,7.269,0.092,7.815c0,1.155,0.273,1.643,0.699,1.643h1.459
			c0.184,0,0.213,0.091,0.213,0.213v0.76c0,0.183-0.029,0.273-0.273,0.273c-0.365,0-0.912-0.091-4.5-0.091
			c-3.104,0-4.289,0.091-4.684,0.091c-0.213,0-0.244-0.091-0.244-0.273v-0.76c0-0.152,0.031-0.213,0.244-0.213h1.703
			c0.516,0,0.791-0.183,0.852-1.034c0.029-0.365,0.121-5.899,0.121-8.028V7.437h-0.182c-0.305,0.517-3.711,8.789-4.258,10.035
			c-0.639,1.399-3.346,8.15-3.498,8.424c-0.152,0.243-0.365,0.699-0.73,0.699c-0.213,0-0.395-0.213-0.547-0.547
			c-0.092-0.213-4.105-9.641-4.318-10.188c-0.547-1.399-3.346-8.211-3.588-8.576c-0.123,0.426-0.184,8.12-0.184,8.484
			C233.326,16.134,233.357,20.27,233.539,22.946z"/>
		<path d="M270.451,15.282c1.398,0,2.736-0.091,3.102-0.183c0.516-0.121,0.941-0.396,1.398-0.942
			c0.334-0.456,0.699-1.308,0.699-1.886c0-0.213,0.092-0.273,0.244-0.273l0.82,0.091c0.152,0.031,0.273,0.062,0.244,0.244
			c-0.092,0.517-0.092,2.098-0.092,3.162c0,1.368,0.121,2.828,0.182,3.467c0.031,0.183-0.09,0.213-0.242,0.243l-0.73,0.152
			c-0.121,0.03-0.182-0.03-0.244-0.243c-0.121-0.486-0.426-1.187-0.607-1.551c-0.334-0.578-1.064-0.974-1.672-1.064
			c-0.822-0.122-1.764-0.183-3.102-0.183v1.824c0,1.643,0.15,4.593,0.15,5.14c0,1.581,0.336,2.129,0.73,2.312
			c0.457,0.183,1.033,0.273,2.555,0.273c0.518,0,1.795-0.03,2.434-0.091c0.607-0.062,1.52-0.365,2.311-1.004
			s2.494-2.524,3.102-3.254c0.121-0.122,0.213-0.152,0.305-0.091l0.516,0.304c0.123,0.061,0.152,0.152,0.123,0.243l-1.369,4.592
			c-0.092,0.274-0.305,0.456-0.668,0.456c-0.152,0-0.822-0.03-2.768-0.061c-1.977,0-5.201-0.03-10.463-0.03
			c-1.125,0-1.977,0.03-2.584,0.03c-0.639,0.03-1.033,0.061-1.309,0.061c-0.213,0-0.273-0.091-0.273-0.334v-0.639
			c0-0.183,0.092-0.273,0.305-0.273h0.912c1.398,0,1.521-0.213,1.521-1.277V14.31c0-2.524-0.061-6.265-0.092-6.569
			c-0.121-0.973-0.426-1.186-1.246-1.186h-1.188c-0.121,0-0.152-0.092-0.152-0.305V5.521c0-0.091,0.031-0.213,0.213-0.213
			c0.67,0,1.734,0.091,4.502,0.091l10.674-0.03c0.486,0,1.064-0.061,1.217-0.061s0.213,0.061,0.242,0.152
			c0.123,0.426,1.127,4.592,1.248,4.896c0.061,0.152,0.061,0.213-0.092,0.305l-0.486,0.243c-0.121,0.061-0.273,0.03-0.365-0.122
			c-0.152-0.243-2.889-2.979-3.588-3.405c-0.639-0.396-1.49-0.791-2.311-0.821l-4.016-0.122L270.451,15.282z"/>
		<path d="M294.65,18.597c-0.244,0.639-1.734,4.806-1.734,5.778c0,0.669,0.275,1.399,1.188,1.399h1.064
			c0.303,0,0.334,0.121,0.334,0.243v0.669c0,0.243-0.031,0.334-0.273,0.334c-0.396,0-1.643-0.091-4.137-0.091
			c-2.219,0-2.889,0.091-3.314,0.091c-0.182,0-0.213-0.182-0.213-0.395v-0.578c0-0.183,0.031-0.273,0.213-0.273h0.791
			c0.73,0,1.459-0.426,2.068-1.339c0.426-0.638,2.584-5.93,3.588-8.605c0.244-0.608,2.707-7.146,2.98-7.968
			c0.092-0.305,0.242-0.699,0.029-1.034c-0.09-0.122-0.213-0.273-0.213-0.396c0-0.091,0.062-0.213,0.305-0.273
			c0.973-0.213,2.949-1.004,3.406-1.521c0.152-0.152,0.244-0.273,0.395-0.273c0.184,0,0.244,0.183,0.336,0.517
			c0.578,1.916,2.949,8.728,3.527,10.674c0.699,2.372,2.676,8.029,3.102,8.85c0.518,1.004,1.309,1.369,1.764,1.369h1.035
			c0.182,0,0.211,0.121,0.211,0.273v0.578c0,0.182-0.029,0.395-0.273,0.395c-0.576,0-1.215-0.091-5.107-0.091
			c-2.525,0-3.59,0.091-4.197,0.091c-0.305,0-0.334-0.182-0.334-0.395v-0.578c0-0.152,0.029-0.273,0.182-0.273h0.852
			c0.82,0,1.094-0.305,0.912-1.095c-0.273-1.095-1.459-4.987-1.824-6.083H294.65z M301.037,17.381l-2.281-8.059
			c-0.121-0.457-0.182-0.67-0.334-0.67c-0.184,0-0.273,0.122-0.365,0.396c-0.152,0.396-2.768,7.572-3.012,8.333H301.037z"/>
		<path d="M316.389,20.209c0.121,0,0.213,0.03,0.213,0.243c0.061,0.942,0.486,2.25,1.215,3.437c0.883,1.398,2.373,2.067,3.832,2.067
			c1.461,0,3.803-0.973,3.803-3.375c0-2.524-0.488-3.254-4.441-4.744c-0.912-0.335-2.857-1.308-4.408-2.646
			c-1.064-0.943-1.521-2.555-1.521-4.318c0-1.855,0.457-3.103,2.281-4.471c1.369-1.034,2.523-1.46,4.379-1.46
			c2.221,0,3.406,0.365,4.045,0.608c0.305,0.122,0.518,0.061,0.699-0.152l0.395-0.395c0.123-0.122,0.275-0.183,0.457-0.183
			c0.213,0,0.273,0.334,0.305,0.517l0.486,5.2c0,0.122-0.061,0.152-0.152,0.183l-0.67,0.213c-0.15,0.061-0.303,0-0.395-0.213
			c-0.334-0.882-0.852-2.068-1.885-3.163c-0.762-0.852-1.674-1.276-3.041-1.276c-2.281,0-3.225,1.977-3.225,2.767
			c0,1.126,0.031,2.038,0.791,2.798c0.791,0.821,2.523,1.551,4.014,1.977c1.461,0.426,2.646,1.187,3.893,2.312
			c1.186,1.064,1.674,2.402,1.674,4.531c0,3.71-2.646,6.721-6.66,6.721c-2.738,0-4.166-0.456-5.443-1.308
			c-0.365-0.243-0.549-0.334-0.701-0.334c-0.182,0-0.303,0.212-0.486,0.517c-0.182,0.334-0.334,0.365-0.547,0.365
			c-0.334,0-0.455-0.152-0.426-0.487l0.486-5.777c0.031-0.213,0.123-0.213,0.244-0.213L316.389,20.209z"/>
		<path d="M335.754,8.105c0-1.064-0.213-1.551-0.852-1.551h-1.428c-0.184,0-0.213-0.062-0.213-0.273v-0.73
			c0-0.183,0.029-0.243,0.273-0.243c0.305,0,1.793,0.091,4.986,0.091c2.678,0,4.137-0.091,4.471-0.091
			c0.244,0,0.273,0.061,0.273,0.243v0.791c0,0.151-0.029,0.213-0.242,0.213h-1.035c-1.033,0-1.551,0.577-1.611,1.186
			c-0.029,0.335-0.061,2.402-0.061,3.954v2.007c0,1.611,0.121,5.474,0.152,6.447c0.029,1.398,0.305,2.767,0.973,3.618
			c1.004,1.217,2.434,1.703,3.801,1.703c1.125,0,2.768-0.577,3.59-1.338c1.215-1.095,1.916-2.768,1.916-4.957v-4.684
			c0-2.554-0.305-5.899-0.426-6.599c-0.123-0.791-0.609-1.338-1.125-1.338h-0.975c-0.182,0-0.213-0.092-0.213-0.243V5.521
			c0-0.152,0.031-0.213,0.213-0.213c0.305,0,1.703,0.091,3.771,0.091c1.643,0,2.615-0.091,2.889-0.091s0.305,0.122,0.305,0.273V6.25
			c0,0.183-0.031,0.305-0.184,0.305h-0.941c-1.156,0-1.248,0.852-1.309,1.155c-0.061,0.426-0.061,4.623-0.061,5.048
			c0,0.426-0.061,5.748-0.152,6.935c-0.182,2.493-1.004,4.409-2.584,5.808c-1.338,1.187-3.406,1.886-5.383,1.886
			c-1.43,0-3.375-0.213-4.652-0.76c-1.461-0.639-2.799-2.068-3.529-4.015c-0.516-1.308-0.639-3.345-0.639-7.329V8.105z"/>
		<path d="M360.26,13.093c0-2.25,0-4.196-0.031-5.018c-0.029-1.004-0.426-1.521-0.852-1.521h-1.215
			c-0.152,0-0.184-0.092-0.184-0.213V5.521c0-0.152,0.031-0.213,0.184-0.213c0.273,0,1.215,0.091,4.531,0.091
			c1.703,0,4.379-0.091,5.625-0.091c2.373,0,4.137,0.852,5.383,2.007c1.096,1.004,1.734,2.189,1.734,3.315
			c0,3.861-2.891,5.596-5.566,5.839v0.213c0.943,0.304,1.43,0.882,2.008,1.611c0.395,0.486,2.068,3.193,2.311,3.559
			c0.184,0.273,1.824,2.584,2.434,3.284c0.365,0.396,1.52,0.639,2.219,0.639c0.213,0,0.244,0.121,0.244,0.243v0.729
			c0,0.183-0.031,0.273-0.244,0.273c-0.242,0-1.033-0.091-3.375-0.091c-0.881,0-2.008,0.061-2.889,0.091
			c-0.912-0.699-2.799-4.227-3.314-5.261c-1.035-2.067-2.281-4.318-3.74-4.318h-1.035v1.551c0,1.795,0.092,5.2,0.152,5.596
			c0.061,0.639,0.305,1.187,0.76,1.187h1.248c0.213,0,0.242,0.091,0.242,0.243v0.729c0,0.213-0.029,0.273-0.486,0.273
			c-0.029,0-0.791-0.091-3.984-0.091c-3.223,0-3.922,0.091-4.256,0.091c-0.244,0-0.244-0.091-0.244-0.304v-0.699
			c0-0.152,0-0.243,0.152-0.243h0.912c0.67,0,1.217-0.213,1.217-0.974c0.061-3.011,0.061-5.869,0.061-8.758V13.093z M364.518,16.377
			c0.578,0.03,0.941,0.03,1.217,0.03c4.014,0,4.957-3.831,4.957-5.261c0-1.398-0.488-2.737-1.156-3.406
			c-1.096-0.973-2.463-1.338-3.375-1.338c-0.518,0-0.914,0.061-1.156,0.273c-0.182,0.122-0.273,0.456-0.334,0.821L364.518,16.377z"
			/>
		<path d="M390.514,15.282c1.398,0,2.736-0.091,3.102-0.183c0.516-0.121,0.941-0.396,1.398-0.942
			c0.334-0.456,0.699-1.308,0.699-1.886c0-0.213,0.092-0.273,0.244-0.273l0.82,0.091c0.152,0.031,0.273,0.062,0.244,0.244
			c-0.092,0.517-0.092,2.098-0.092,3.162c0,1.368,0.121,2.828,0.182,3.467c0.031,0.183-0.09,0.213-0.242,0.243l-0.73,0.152
			c-0.121,0.03-0.182-0.03-0.244-0.243c-0.121-0.486-0.426-1.187-0.607-1.551c-0.334-0.578-1.064-0.974-1.672-1.064
			c-0.822-0.122-1.764-0.183-3.102-0.183v1.824c0,1.643,0.15,4.593,0.15,5.14c0,1.581,0.336,2.129,0.73,2.312
			c0.457,0.183,1.033,0.273,2.555,0.273c0.518,0,1.795-0.03,2.434-0.091c0.607-0.062,1.52-0.365,2.311-1.004
			s2.494-2.524,3.102-3.254c0.121-0.122,0.213-0.152,0.305-0.091l0.516,0.304c0.123,0.061,0.152,0.152,0.123,0.243l-1.369,4.592
			c-0.092,0.274-0.305,0.456-0.668,0.456c-0.152,0-0.822-0.03-2.768-0.061c-1.977,0-5.201-0.03-10.463-0.03
			c-1.125,0-1.977,0.03-2.584,0.03c-0.639,0.03-1.033,0.061-1.309,0.061c-0.213,0-0.273-0.091-0.273-0.334v-0.639
			c0-0.183,0.092-0.273,0.305-0.273h0.912c1.398,0,1.521-0.213,1.521-1.277V14.31c0-2.524-0.061-6.265-0.092-6.569
			c-0.121-0.973-0.426-1.186-1.246-1.186h-1.188c-0.121,0-0.152-0.092-0.152-0.305V5.521c0-0.091,0.031-0.213,0.213-0.213
			c0.67,0,1.734,0.091,4.502,0.091l10.674-0.03c0.486,0,1.064-0.061,1.217-0.061s0.213,0.061,0.242,0.152
			c0.123,0.426,1.127,4.592,1.248,4.896c0.061,0.152,0.061,0.213-0.092,0.305l-0.486,0.243c-0.121,0.061-0.273,0.03-0.365-0.122
			c-0.152-0.243-2.889-2.979-3.588-3.405c-0.639-0.396-1.49-0.791-2.311-0.821l-4.016-0.122L390.514,15.282z"/>
		<path d="M411.672,20.209c0.121,0,0.213,0.03,0.213,0.243c0.061,0.942,0.486,2.25,1.215,3.437c0.883,1.398,2.373,2.067,3.832,2.067
			c1.461,0,3.803-0.973,3.803-3.375c0-2.524-0.488-3.254-4.441-4.744c-0.912-0.335-2.857-1.308-4.408-2.646
			c-1.064-0.943-1.521-2.555-1.521-4.318c0-1.855,0.457-3.103,2.281-4.471c1.369-1.034,2.523-1.46,4.379-1.46
			c2.221,0,3.406,0.365,4.045,0.608c0.305,0.122,0.518,0.061,0.699-0.152l0.395-0.395c0.123-0.122,0.275-0.183,0.457-0.183
			c0.213,0,0.273,0.334,0.305,0.517l0.486,5.2c0,0.122-0.061,0.152-0.152,0.183l-0.67,0.213c-0.15,0.061-0.303,0-0.395-0.213
			c-0.334-0.882-0.852-2.068-1.885-3.163c-0.762-0.852-1.674-1.276-3.041-1.276c-2.281,0-3.225,1.977-3.225,2.767
			c0,1.126,0.031,2.038,0.791,2.798c0.791,0.821,2.523,1.551,4.014,1.977c1.461,0.426,2.646,1.187,3.893,2.312
			c1.186,1.064,1.674,2.402,1.674,4.531c0,3.71-2.646,6.721-6.66,6.721c-2.738,0-4.166-0.456-5.443-1.308
			c-0.365-0.243-0.549-0.334-0.701-0.334c-0.182,0-0.303,0.212-0.486,0.517c-0.182,0.334-0.334,0.365-0.547,0.365
			c-0.334,0-0.455-0.152-0.426-0.487l0.486-5.777c0.031-0.213,0.123-0.213,0.244-0.213L411.672,20.209z"/>
	</g>
	<g>
		<path d="M193.782,32.29c0-2.281,1.308-4.075,2.555-5.17c1.004-0.882,2.25-1.703,3.102-2.129c-2.067-1.368-3.01-2.706-3.041-4.228
			c0.031-2.402,2.95-5.2,5.809-5.2c3.406,0,5.291,2.159,5.23,4.228c-0.061,1.703-1.945,3.376-3.648,4.015
			c2.342,1.003,4.379,3.254,5.99,5.656c1.096-1.308,1.795-3.163,1.795-4.44c0-0.486-0.305-0.942-0.943-0.942h-0.395
			c-0.184,0-0.213-0.092-0.213-0.213v-0.73c0-0.091,0.029-0.151,0.213-0.151c0.273,0,1.916,0.091,3.496,0.091
			c1.125,0,2.951-0.091,3.133-0.091c0.184,0,0.213,0.091,0.213,0.243v0.639c0,0.121-0.029,0.213-0.213,0.213h-0.518
			c-0.912,0-1.428,0.121-1.854,0.79c-0.244,0.396-1.947,3.406-3.803,5.718c0.396,0.304,1.613,1.886,2.525,2.768
			c0.455,0.456,1.732,1.764,3.375,1.764c1.945,0,2.92-1.673,3.162-2.007c0.092-0.122,0.184-0.152,0.244-0.092l0.607,0.426
			c0.061,0.03,0.061,0.122-0.029,0.273c-0.549,1.004-2.586,3.832-6.418,3.832c-3.436,0-4.773-1.794-6.385-3.619
			c-1.277,1.217-3.041,3.619-6.934,3.619C196.519,37.551,193.782,34.57,193.782,32.29z M207.071,32.776
			c-1.459-2.433-4.287-5.596-6.599-6.964c-1.003,0.608-2.524,2.828-2.463,5.353c0.061,2.615,2.554,4.044,3.983,4.044
			C204.668,35.209,206.006,33.901,207.071,32.776z M200.077,20.004c0,1.308,1.399,2.493,2.555,3.041
			c0.639-0.426,1.43-1.155,1.43-3.345c0-1.339-0.639-2.859-1.855-2.859C200.563,16.841,200.077,18.423,200.077,20.004z"/>
	</g>
</g>
</svg>
